PathFileType	4	(X/Y/Z)	C:/Users/opensim2020/Desktop/walking_exp_matlab/subject01_walking05_straight_03.trc	
DataRate	CameraRate	NumFrames	NumMarkers	Units	OrigDataRate	OrigDataStartFrame	OrigNumFrames	
100.00	100.00	8	43	mm	100.00	2134	223	
Frame#	Time	LFHD			RFHD			LBHD			RBHD			C7			T10			CLAV			STRN			RBAK			LSHO			LUPA			LELB			LFRM			LWRA			LWRB			LFIN			RSHO			RUPA			RELB			RFRM			RWRA			RWRB			RFIN			LASI			RASI			LPSI			RPSI			LTHI			LKNE			LTIB			LANK			LHEE			LTOE			RTHI			RKNE			RTIB			RANK			RHEE			RTOE			*39			*40			*41			*42			
		X1	Y1	Z1	X2	Y2	Z2	X3	Y3	Z3	X4	Y4	Z4	X5	Y5	Z5	X6	Y6	Z6	X7	Y7	Z7	X8	Y8	Z8	X9	Y9	Z9	X10	Y10	Z10	X11	Y11	Z11	X12	Y12	Z12	X13	Y13	Z13	X14	Y14	Z14	X15	Y15	Z15	X16	Y16	Z16	X17	Y17	Z17	X18	Y18	Z18	X19	Y19	Z19	X20	Y20	Z20	X21	Y21	Z21	X22	Y22	Z22	X23	Y23	Z23	X24	Y24	Z24	X25	Y25	Z25	X26	Y26	Z26	X27	Y27	Z27	X28	Y28	Z28	X29	Y29	Z29	X30	Y30	Z30	X31	Y31	Z31	X32	Y32	Z32	X33	Y33	Z33	X34	Y34	Z34	X35	Y35	Z35	X36	Y36	Z36	X37	Y37	Z37	X38	Y38	Z38	X39	Y39	Z39	X40	Y40	Z40	X41	Y41	Z41	X42	Y42	Z42	X43	Y43	Z43	

56	0.550	-1076.13501	-658.98932	1674.89490	-964.22546	-639.86157	1687.72949	-1059.09521	-762.00275	1604.75793	-939.75574	-744.25500	1616.15894	-1014.50543	-771.44000	1432.53674	-1007.75604	-814.07507	1142.68420	-1019.53558	-626.82629	1365.89063	-1024.81030	-587.26855	1208.42261	-931.99841	-824.98120	1240.92859	-1177.28870	-696.10516	1395.12109	-1258.36279	-745.51489	1214.81995	-1258.60718	-770.42926	1065.48718	-1283.95203	-740.67493	955.06494	-1268.00879	-668.39398	835.50195	-1289.85669	-724.76971	833.31146	-1298.82300	-681.80664	760.35034	-867.42218	-686.75958	1396.09595	-758.56458	-726.10590	1197.76306	-749.10138	-710.95990	1072.11450	-717.93469	-647.56439	968.17578	-736.24890	-531.86810	886.34467	-698.10651	-574.15332	872.32031	-697.94641	-512.32733	812.76544	-1118.87939	-648.19147	934.00256	-900.92560	-651.85028	928.26874	-1071.99902	-835.00201	947.79034	-927.69385	-837.69470	952.20837	-1194.02686	-589.43646	625.02728	-1181.02222	-565.69037	491.97937	-1189.66760	-627.80554	312.31262	-1143.32861	-662.41974	95.82491	-1082.02197	-697.03900	64.81113	-1177.16321	-527.87439	51.89220	-863.30957	-739.51746	598.77991	-893.79907	-747.64618	440.97415	-896.65283	-813.82593	276.77460	-958.15564	-846.09607	74.31219	-1013.37372	-893.07880	40.70020	-951.46942	-706.73987	31.52839	-986.06525	-660.88635	1716.65771	-3102.04736	1973.16919	1023.99939	-3138.13452	2013.20862	1022.35010			 
57	0.560	-1076.26794	-651.44122	1674.26575	-964.33087	-632.39020	1687.22400	-1059.02222	-754.32587	1603.95947	-939.75574	-736.63055	1615.62622	-1014.19958	-763.57062	1431.95715	-1007.38348	-806.07935	1142.08618	-1019.01105	-618.91382	1365.30164	-1024.57471	-579.27905	1207.85767	-931.42438	-816.82001	1240.37329	-1176.89758	-688.29523	1394.49084	-1257.93579	-738.62073	1214.34607	-1257.69397	-764.36890	1065.26880	-1282.73804	-736.01953	954.47205	-1265.92957	-665.77460	833.52374	-1288.35986	-722.00818	832.54834	-1296.75439	-680.26593	758.61420	-867.58136	-678.57581	1396.05017	-758.06866	-716.95703	1197.81995	-748.27771	-701.65344	1072.24805	-717.25269	-636.62225	969.15985	-735.69861	-519.87225	888.95978	-697.52850	-561.54962	874.27606	-697.61792	-499.10214	815.47382	-1118.17871	-639.90997	933.41492	-900.28644	-644.22473	927.65698	-1072.00549	-826.87567	947.36847	-927.80316	-829.99780	951.82501	-1193.14807	-582.12750	623.83289	-1179.65564	-557.96997	491.06543	-1189.45862	-610.99170	308.99429	-1143.62634	-632.78174	90.09200	-1082.66650	-666.73840	57.42471	-1175.15833	-495.47528	53.32517	-863.15979	-734.70923	598.41248	-893.85870	-744.66541	440.62616	-896.64392	-811.88507	276.96735	-958.17932	-846.64368	74.96867	-1013.46533	-892.29352	40.69935	-951.50183	-706.64227	31.52109	-986.19122	-653.22357	1716.19531	-3103.05078	1972.67932	1024.53955	-3138.37231	2013.08398	1022.30511			 
58	0.570	-1076.48401	-643.83148	1673.56482	-964.51538	-624.71222	1686.71106	-1059.08899	-746.59088	1603.07556	-939.89624	-728.90265	1614.89453	-1013.99567	-755.61603	1431.24060	-1007.20300	-798.08435	1141.40503	-1019.30707	-610.83032	1364.75708	-1024.39539	-571.28589	1207.23572	-930.96973	-808.64081	1239.70374	-1176.82227	-680.45392	1393.86633	-1257.57739	-731.61755	1213.74915	-1256.98645	-758.24408	1064.96985	-1281.69214	-731.19769	953.93195	-1264.09119	-662.90564	831.83972	-1287.03857	-718.90381	831.74335	-1294.61365	-678.58636	756.85889	-867.59821	-670.40442	1395.95886	-757.58203	-707.74792	1197.89197	-747.53632	-692.14661	1072.34058	-716.59253	-625.81091	970.04846	-735.31555	-508.17227	891.27924	-696.99005	-549.60919	876.12531	-697.29968	-486.24591	818.02460	-1117.68896	-631.28876	932.92407	-899.71417	-636.60492	926.91016	-1072.08374	-818.57477	946.85687	-928.00195	-822.53540	951.52155	-1192.36743	-575.25891	622.38135	-1178.34106	-550.68524	489.93338	-1189.23181	-594.83289	306.22638	-1143.96130	-603.40887	85.17345	-1083.52612	-636.73059	51.16483	-1172.86243	-463.40121	56.14941	-863.09045	-730.03247	598.00311	-893.94281	-741.91998	440.39697	-896.77521	-810.08307	277.13861	-958.27362	-846.38251	75.47133	-1013.64160	-891.97571	41.13471	-951.38293	-706.38971	31.48886	-986.50696	-645.73676	1715.49390	-3101.85474	1973.14526	1024.04590	-3138.25635	2013.15649	1022.34082			 
59	0.580	-1076.74622	-636.22552	1672.79797	-964.78241	-617.22803	1686.00757	-1059.26501	-738.79797	1602.14844	-940.05310	-721.24231	1614.19226	-1013.90442	-747.77148	1430.53064	-1007.11298	-789.97498	1140.63501	-1019.41095	-602.74774	1364.05273	-1024.35156	-563.17865	1206.55249	-930.60022	-800.41431	1238.99951	-1176.78699	-672.57996	1393.13086	-1257.36865	-724.56097	1213.08398	-1256.38599	-752.00641	1064.63391	-1280.68994	-726.19977	953.20239	-1262.41919	-659.65210	830.13245	-1285.82568	-715.47308	830.87885	-1292.24182	-676.33252	755.05176	-867.78571	-662.28583	1395.68896	-757.00385	-698.54779	1197.89990	-746.91888	-682.41241	1072.48364	-716.03387	-615.31494	970.84778	-735.07263	-496.64871	893.44891	-696.57306	-537.73730	877.84094	-697.09576	-473.86676	820.36914	-1117.08142	-622.71942	932.25342	-899.26154	-629.00610	926.01672	-1072.19788	-810.16199	946.31622	-928.19623	-814.13556	950.95856	-1191.86584	-568.65234	620.80591	-1177.03125	-543.55438	488.67267	-1188.65295	-578.63690	303.71432	-1144.26221	-574.37720	81.43158	-1084.48560	-606.90240	45.89999	-1170.42944	-432.35242	59.92489	-863.00952	-725.25488	597.70483	-894.03906	-738.90228	440.10144	-896.71490	-808.36035	277.68011	-958.32605	-846.30634	76.05043	-1013.89026	-891.34430	41.42340	-951.48767	-706.53583	31.39462	-986.71521	-638.24219	1714.87158	-3102.89648	1972.80212	1023.87280	-3138.23315	2013.14185	1022.35193			 
60	0.590	-1077.00366	-628.52924	1671.97778	-965.10394	-609.46838	1685.25439	-1059.50720	-730.95728	1601.14709	-940.27655	-713.28528	1613.20996	-1013.91754	-739.43048	1429.53918	-1007.11719	-781.85620	1139.77185	-1019.66370	-594.61993	1363.30310	-1024.43054	-555.04016	1205.82458	-930.37665	-792.18616	1238.28564	-1176.91150	-664.66254	1392.34167	-1257.24829	-717.45660	1212.31128	-1255.96350	-745.63904	1064.13330	-1279.87390	-720.95245	952.43970	-1260.86682	-656.08282	828.49994	-1284.72327	-711.75372	830.00183	-1290.76135	-673.78479	753.32007	-868.36560	-654.10602	1394.88879	-756.59949	-689.37714	1197.81665	-746.27527	-673.09705	1072.42664	-715.53308	-604.92596	971.38763	-734.95447	-485.51791	895.29315	-696.26709	-526.53589	879.33240	-697.09290	-461.86212	822.70367	-1116.52917	-613.92810	931.48944	-898.82068	-621.18500	925.09546	-1072.38599	-801.56879	945.69214	-928.44922	-805.99738	950.43842	-1191.46667	-562.62598	618.55011	-1175.63757	-536.65344	487.07443	-1188.08765	-562.93622	301.49380	-1144.45703	-546.13550	78.97208	-1085.34827	-577.98578	41.68790	-1167.75134	-402.44495	64.23669	-862.96942	-720.16125	597.25989	-894.04657	-735.70599	439.97708	-896.79749	-806.49603	278.00870	-958.37128	-845.35565	76.52224	-1013.99585	-891.50592	42.68032	-951.31622	-706.49548	31.50033	-987.03998	-630.52155	1713.96777	-3102.16479	1973.14441	1023.94519						 
61	0.600	-1077.31689	-620.81525	1671.11670	-965.41699	-601.67578	1684.57971	-1059.84338	-723.12683	1600.15491	-940.64825	-705.45526	1612.15430	-1014.11285	-731.47034	1428.70703	-1007.24969	-773.61053	1138.86938	-1019.72614	-586.58881	1362.47729	-1024.53943	-546.89789	1205.01013	-930.23706	-783.93176	1237.49231	-1177.12537	-656.68945	1391.38965	-1257.28857	-710.16840	1211.44165	-1255.68396	-739.14868	1063.53503	-1279.22498	-715.55011	951.53021	-1259.54773	-652.09546	827.00812	-1283.66296	-707.69885	828.96454	-1289.01489	-670.82031	751.73999	-868.53772	-645.83594	1394.53345	-756.20355	-680.34985	1197.66003	-745.71997	-663.79395	1072.26709	-715.07599	-594.60193	971.83411	-734.93170	-474.56357	896.86932	-695.98120	-514.97241	880.51422	-696.99017	-449.81332	824.50543	-1116.03760	-604.93237	930.61584	-898.42920	-613.20105	924.28796	-1072.71411	-792.84491	944.91772	-928.73218	-797.78284	949.74951	-1190.93958	-557.17773	616.24841	-1174.30273	-529.82837	485.44943	-1187.54822	-547.32874	299.57516	-1144.49561	-518.97247	77.99072	-1086.34192	-550.28308	39.14384	-1165.55627	-374.31073	69.49197	-862.89258	-715.07318	596.94366	-893.92755	-732.01678	439.68274	-896.89886	-804.40393	278.38037	-958.40588	-845.54395	77.21841	-1014.08423	-891.59497	43.95990	-951.29108	-706.44263	31.41347	-987.30090	-623.04138	1713.22778	-3102.35864	1972.95313	1023.93933						 
62	0.610	-1077.79138	-613.02765	1670.22144	-965.95276	-594.21362	1683.84399	-1060.28674	-715.17542	1599.00635	-941.03271	-697.61078	1611.15674	-1014.39874	-723.49213	1427.79382	-1007.48334	-765.33148	1137.90417	-1020.42365	-578.39514	1361.63184	-1024.71118	-538.70929	1204.13440	-930.27014	-775.66046	1236.67065	-1177.45483	-648.63531	1390.43665	-1257.41577	-702.84338	1210.49939	-1255.46619	-732.57941	1062.83264	-1278.73877	-709.84503	950.59076	-1258.53772	-647.71222	825.57318	-1283.04529	-703.24579	828.01672	-1287.06018	-667.24811	749.90045	-869.06268	-637.51056	1393.83130	-755.96313	-671.36810	1197.40869	-745.01685	-654.85431	1071.98364	-714.73279	-584.46368	972.10547	-735.03125	-463.95715	898.10620	-695.87628	-503.98166	881.53528	-696.98920	-437.89932	826.16754	-1115.66187	-595.80682	929.63818	-898.10339	-605.05609	923.40997	-1073.10181	-783.93872	944.06586	-929.11707	-789.49622	948.99689	-1190.83936	-551.50824	613.95410	-1173.06335	-523.08643	483.71774	-1187.08228	-532.11530	298.27600	-1144.31970	-493.28903	77.88019	-1086.33362	-523.64148	37.98625	-1163.22424	-347.67725	74.41338	-862.64496	-710.03235	596.75879	-893.90887	-728.52338	439.52432	-896.78180	-802.62427	279.04388	-958.42566	-844.87592	77.80804	-1014.04071	-891.41962	45.11718	-951.25842	-706.36230	31.39111	-987.82269	-615.22888	1712.31396	-3102.75220	1972.89111	1023.84015	-3138.37012	2013.09424	1022.10034			 
63	0.620	-1078.34680	-605.21960	1669.32935	-966.56726	-586.70172	1682.80432	-1060.85999	-707.32819	1597.98889	-941.58289	-689.65881	1610.04822	-1014.74707	-715.07849	1426.75916	-1007.86639	-756.91840	1136.82678	-1020.94232	-570.11108	1360.68665	-1025.00244	-530.44873	1203.24280	-930.31628	-767.68164	1236.01599	-1177.91003	-640.56274	1389.39636	-1257.65454	-695.39771	1209.47131	-1255.28748	-725.90967	1061.95471	-1278.29858	-704.07001	949.52100	-1257.44006	-643.17566	823.77600	-1282.50745	-698.41095	826.92090	-1285.95667	-663.45538	748.29022	-869.69366	-629.16559	1393.12708	-755.91809	-662.59790	1197.09741	-744.84564	-645.31134	1071.68176	-714.49268	-574.50946	972.30121	-735.19678	-453.56079	899.12781	-695.74451	-493.21045	882.45782	-697.06207	-426.85782	827.55933	-1115.22339	-586.69788	928.53314	-897.79651	-596.79645	922.56165	-1073.61548	-774.98364	943.08374	-929.64972	-781.03528	948.14423	-1190.85669	-545.81995	611.54095	-1172.02271	-516.27643	482.17865	-1186.64355	-517.54132	297.44083	-1143.72083	-469.46576	78.45402	-1086.09424	-499.15030	37.70957	-1160.73438	-323.22757	79.03098	-862.62781	-704.52020	596.45074	-893.80090	-724.76349	439.35092	-896.72742	-800.86090	279.87164	-958.43555	-844.50543	78.74110	-1014.30060	-891.09650	46.37614	-951.21027	-706.28009	31.35828	-988.39063	-607.49585	1711.34448	-3102.68921	1972.88879	1023.97510	-3138.33252	2013.10913	1022.12634			 
